<svg version="1.1" xmlns="http://www.w3.org/2000/svg" xmlns:xlink="http://www.w3.org/1999/xlink" width="48" height="48"><defs><linearGradient x1="8.44322" y1="10.17175" x2="44.91037" y2="43.18186" gradientUnits="userSpaceOnUse" id="color-1"><stop offset="0.55" stop-color="#000000" stop-opacity="0.41"></stop><stop offset="1" stop-color="#000000" stop-opacity="0"></stop></linearGradient><linearGradient x1="33.625" y1="14.375" x2="43" y2="23.75" gradientUnits="userSpaceOnUse" id="color-2"><stop offset="0" stop-color="#000000" stop-opacity="0.41"></stop><stop offset="1" stop-color="#000000" stop-opacity="0"></stop></linearGradient><filter id="dropshadow-base"><feColorMatrix type="matrix" values="0 0 0 0 0  0 0 0 0 0  0 0 0 0 0  0 0 0 .8 0"></feColorMatrix> <feOffset dx="0" dy="1"></feOffset> <feGaussianBlur stdDeviation="1"></feGaussianBlur> <feComposite in="SourceGraphic"></feComposite></filter><filter id="dropshadow-banner" x="-10%" y="-10%" width="120%" height="130%"><feColorMatrix type="matrix" values="0 0 0 0 0  0 0 0 0 0  0 0 0 0 0  0 0 0 .4 0"></feColorMatrix> <feOffset dx="0" dy="1"></feOffset> <feGaussianBlur stdDeviation="0.5"></feGaussianBlur> <feComposite in="SourceGraphic"></feComposite></filter></defs><g transform="translate(0,0)"><g fill="none" fill-rule="nonzero" stroke="none" stroke-width="none" stroke-linecap="butt" stroke-linejoin="miter" stroke-miterlimit="10" stroke-dasharray="" stroke-dashoffset="0" font-family="none" font-weight="none" font-size="none" text-anchor="none" style="mix-blend-mode: normal"><path d="M7,43c-1.10457,0 -2,-0.89543 -2,-2v-34c0,-1.10457 0.89543,-2 2,-2l26,0l10,10v26c0,1.10457 -0.89543,2 -2,2z" id="base 1 9 1 1 1 2" fill-opacity="0" fill="#000000" stroke-width="1"></path><path d="M40.23254,42.6741l-2.9493,-2.9493h-18.30082l0,1.72853c0,0.6747 -0.38742,1.26234 -0.95527,1.54667l-3.27125,0c-0.16762,-0.08401 -0.31992,-0.1945 -0.45131,-0.3259l-5.35361,-5.35361c-0.3133,-0.3133 -0.50776,-0.74543 -0.50776,-1.22077v-13.82825l3.59534,-10.35391c0.35435,-1.01982 1.32233,-1.74581 2.45452,-1.74581h19.01384c0.7156,0 1.36559,0.29001 1.83651,0.76093l5.35361,5.35361c0.27415,0.27415 0.48762,0.60962 0.618,0.98488l1.68496,4.85237v18.87646c0,1.10457 -0.89543,2 -2,2h-0.31615c-0.16762,-0.08401 -0.31992,-0.1945 -0.45131,-0.3259zM36.09972,20.54294l-0.80826,-2.42478h-15.44477l-0.80826,2.42478zM15.03595,24.05662c0.19998,0.04241 0.39136,0.10779 0.57125,0.19325l-0.47383,-0.47383zM21.68109,30.11199c0.46886,0.46886 0.75839,1.11706 0.75839,1.83441c0,1.10972 -0.6929,2.05398 -1.67073,2.4248h13.60242l3.45706,3.45706c0.95934,0 1.72853,-0.77784 1.72853,-1.72853v-1.65462c-0.22146,0.06133 -0.45494,0.09409 -0.69624,0.09409c-0.71734,0 -1.36554,-0.28953 -1.83441,-0.75839l-5.35361,-5.35361c-0.46886,-0.46886 -0.75839,-1.11706 -0.75839,-1.83441c0,-0.2413 0.03276,-0.47478 0.09409,-0.69624h-13.54255zM39.55677,28.97382l0,-3.07727l-3.07727,0zM37.21422,15.52535l-0.9465,0l1.45,1.45zM13.79682,34.37119h5.12779c-0.34575,-0.13112 -0.65587,-0.33393 -0.91234,-0.59039l-4.21545,-4.21545z" fill="url(#color-1)" stroke-width="1"></path><path d="M35.96144,11.91757c-0.35435,-1.01983 -1.32233,-1.74582 -2.45451,-1.74582h-19.01384c-1.13219,0 -2.10017,0.72598 -2.45451,1.74582l-3.59535,10.3539v13.82825c0,0.95069 0.77784,1.72853 1.72853,1.72853h1.72853c0.95933,0 1.72853,-0.77784 1.72853,-1.72853v-1.72853h20.74238v1.72853c0,0.95069 0.77784,1.72853 1.72853,1.72853h1.72853c0.95933,0 1.72853,-0.77784 1.72853,-1.72853v-13.82825zM14.49308,29.18559c-1.43468,0 -2.5928,-1.15812 -2.5928,-2.5928c0,-1.43468 1.15812,-2.5928 2.5928,-2.5928c1.43468,0 2.5928,1.15812 2.5928,2.5928c0,1.43468 -1.15812,2.5928 -2.5928,2.5928zM33.50692,29.18559c-1.43468,0 -2.5928,-1.15812 -2.5928,-2.5928c0,-1.43468 1.15812,-2.5928 2.5928,-2.5928c1.43468,0 2.5928,1.15812 2.5928,2.5928c0,1.43468 -1.15812,2.5928 -2.5928,2.5928zM11.90028,20.54294l2.5928,-7.77839h19.01384l2.5928,7.77839z" fill="none" stroke-width="0"></path><path d="M39.55678,22.27147v13.82825c0,0.95069 -0.7692,1.72853 -1.72853,1.72853h-1.72853c-0.95069,0 -1.72853,-0.77784 -1.72853,-1.72853v-1.72853h-20.74238v1.72853c0,0.95069 -0.7692,1.72853 -1.72853,1.72853h-1.72853c-0.95069,0 -1.72853,-0.77784 -1.72853,-1.72853v-13.82825l3.59535,-10.3539c0.35435,-1.01983 1.32233,-1.74582 2.45451,-1.74582h19.01384c1.13219,0 2.10017,0.72598 2.45451,1.74582zM17.08587,26.5928c0,-1.43468 -1.15812,-2.5928 -2.5928,-2.5928c-1.43468,0 -2.5928,1.15812 -2.5928,2.5928c0,1.43468 1.15812,2.5928 2.5928,2.5928c1.43468,0 2.5928,-1.15812 2.5928,-2.5928zM36.09972,26.5928c0,-1.43468 -1.15812,-2.5928 -2.5928,-2.5928c-1.43468,0 -2.5928,1.15812 -2.5928,2.5928c0,1.43468 1.15812,2.5928 2.5928,2.5928c1.43468,0 2.5928,-1.15812 2.5928,-2.5928zM36.09972,20.54294l-2.5928,-7.77839h-19.01384l-2.5928,7.77839z" fill="#e06a46" stroke-width="0"></path><path d="M2,24c0,-12.15026 9.84974,-22 22,-22c12.15026,0 22,9.84974 22,22c0,12.15026 -9.84974,22 -22,22c-12.15026,0 -22,-9.84974 -22,-22z" id="base 1 5 1" fill="none" stroke-width="1"></path><path d="M2,24c0,-12.15026 9.84974,-22 22,-22c12.15026,0 22,9.84974 22,22c0,12.15026 -9.84974,22 -22,22c-12.15026,0 -22,-9.84974 -22,-22z" id="base 1 1 1" fill="none" stroke-width="1"></path><g fill="#000000" stroke-width="1" font-family="Roboto, sans-serif" font-weight="400" font-size="14" text-anchor="start"></g><rect x="2" y="2" width="44" height="22" fill="none" stroke-width="1"></rect><path d="M2,24v-22h44v22z" fill="none" stroke-width="1"></path><path d="M2,24v-22h44v22z" fill="none" stroke-width="1"></path><path d="M2,24v-22h44v22z" fill="none" stroke-width="1"></path><path d="M2,24v-22h44v22z" fill="none" stroke-width="1"></path><g fill="#000000" stroke-width="1" font-family="Roboto, sans-serif" font-weight="400" font-size="14" text-anchor="start"></g><path d="M13,36v-12h30v12z" id="banner 1" fill="#545454" stroke-width="1" filter="url(#dropshadow-banner)"></path><text x="28" y="33" fill="#ffffff" stroke-width="1" font-family="sans-serif" font-weight="bold" font-size="8" text-anchor="middle">DEV</text><rect x="2" y="2" width="44" height="22" fill="none" stroke-width="1"></rect><path d="M2,24v-22h44v22z" fill="none" stroke-width="1"></path><path d="M2,24v-22h44v22z" fill="none" stroke-width="1"></path><path d="M2,24v-22h44v22z" fill="none" stroke-width="1"></path><path d="M2,24v-22h44v22z" fill="none" stroke-width="1"></path><path d="M33.625,14.375l9.375,0.625v8.75z" fill="url(#color-2)" stroke-width="1"></path><path d="M33,5l10,10h-8c-1,0 -2,-1 -2,-2z" fill="#1e1e1e" stroke-width="1"></path></g></g></svg>